<svg xmlns="http://www.w3.org/2000/svg" version="1.1" xmlns:xlink="http://www.w3.org/1999/xlink" xmlns:svgjs="http://svgjs.com/svgjs" width="1366" height="768" preserveAspectRatio="none" viewBox="0 0 1366 768"><g mask="url(&quot;#SvgjsMask1012&quot;)" fill="none"><rect width="1366" height="768" x="0" y="0" fill="rgba(233, 234, 239, 1)"></rect><path d="M1228.396,612.971C1273.746,614.729,1317.225,592.854,1341.02,554.208C1366.012,513.619,1371.768,461.423,1346.653,420.91C1322.602,382.113,1274.036,373.324,1228.396,372.539C1180.862,371.721,1126.337,375.367,1102.873,416.714C1079.577,457.764,1104.511,506.264,1129.943,546.027C1152.861,581.86,1185.893,611.324,1228.396,612.971" fill="rgba(243, 102, 102, 0.23)" class="triangle-float1"></path><path d="M141.15,556.697C195.747,555.477,232.251,508.366,261.177,462.045C292.707,411.553,330.393,352.22,301.249,300.314C271.803,247.872,201.292,248.538,141.15,248.28C80.341,248.019,9.602,246.585,-21.348,298.929C-52.598,351.78,-21.289,415.687,11.454,467.627C41.43,515.178,84.953,557.953,141.15,556.697" fill="rgba(243, 102, 102, 0.23)" class="triangle-float1"></path><path d="M1390.44,356.162C1450.514,353.244,1511.172,336.063,1543.031,285.049C1576.697,231.142,1578.664,161.658,1545.934,107.177C1514.082,54.157,1452.291,30.697,1390.44,31.054C1329.289,31.407,1272.015,58.118,1238.028,108.956C1199.44,166.676,1173.375,242.136,1209.813,301.237C1245.211,358.652,1323.069,359.435,1390.44,356.162" fill="rgba(243, 102, 102, 0.23)" class="triangle-float2"></path><path d="M1283.853,571.972C1321.413,571.365,1356.183,552.159,1375.081,519.694C1394.096,487.027,1394.01,447.059,1375.868,413.899C1356.942,379.307,1323.27,351.894,1283.853,352.95C1245.817,353.969,1218.795,385.528,1199.996,418.609C1181.483,451.186,1169.397,489.85,1187.373,522.726C1205.939,556.681,1245.159,572.597,1283.853,571.972" fill="rgba(243, 102, 102, 0.23)" class="triangle-float3"></path><path d="M1250.259,278.168C1274.776,278.132,1295.653,262.612,1308.352,241.64C1321.593,219.771,1326.83,193.351,1315.488,170.44C1302.823,144.857,1278.805,124.457,1250.259,124.293C1221.482,124.127,1196.522,143.911,1183.717,169.682C1172.177,192.907,1178.309,219.704,1191.869,241.811C1204.718,262.758,1225.685,278.204,1250.259,278.168" fill="rgba(243, 102, 102, 0.23)" class="triangle-float1"></path><path d="M904.926,919.061C949.867,917.962,988.602,891.536,1012.179,853.261C1037.145,812.73,1049.57,762.771,1027.022,720.847C1003.454,677.025,954.684,653.781,904.926,653.839C855.273,653.897,807.905,677.991,783.325,721.133C758.973,763.875,762.434,816.825,788.185,858.74C812.76,898.74,857.994,920.209,904.926,919.061" fill="rgba(243, 102, 102, 0.23)" class="triangle-float1"></path><path d="M637.669,537.595C668.695,538.246,698.453,523.873,714.682,497.422C731.675,469.725,733.755,434.996,718.079,406.533C701.854,377.073,671.298,358.052,637.669,357.587C603.229,357.11,569.291,373.742,553.309,404.253C538.232,433.036,548.683,466.845,566.055,494.304C582.039,519.569,607.779,536.968,637.669,537.595" fill="rgba(243, 102, 102, 0.23)" class="triangle-float1"></path><path d="M367.424,143.144C398.14,143.038,420.545,116.625,434.367,89.195C446.69,64.74,445.92,36.819,433.227,12.554C419.406,-13.867,397.22,-37.672,367.424,-38.78C336.035,-39.947,307.217,-20.459,292.563,7.324C278.789,33.439,285.427,63.801,299.679,89.658C314.564,116.664,336.587,143.25,367.424,143.144" fill="rgba(243, 102, 102, 0.23)" class="triangle-float2"></path></g><defs><mask id="SvgjsMask1012"><rect width="1366" height="768" fill="#ffffff"></rect></mask><style>
            @keyframes float1 {
                0%{transform: translate(0, 0)}
                50%{transform: translate(-10px, 0)}
                100%{transform: translate(0, 0)}
            }

            .triangle-float1 {
                animation: float1 5s infinite;
            }

            @keyframes float2 {
                0%{transform: translate(0, 0)}
                50%{transform: translate(-5px, -5px)}
                100%{transform: translate(0, 0)}
            }

            .triangle-float2 {
                animation: float2 4s infinite;
            }

            @keyframes float3 {
                0%{transform: translate(0, 0)}
                50%{transform: translate(0, -10px)}
                100%{transform: translate(0, 0)}
            }

            .triangle-float3 {
                animation: float3 6s infinite;
            }
        </style></defs></svg>