<svg xmlns="http://www.w3.org/2000/svg" xmlns:xlink="http://www.w3.org/1999/xlink" width="37.668" height="50.149" viewBox="0 0 37.668 50.149"><defs><linearGradient id="a" x1="0.5" y1="0.731" x2="0.5" gradientUnits="objectBoundingBox"><stop offset="0" stop-color="#575f6b"/><stop offset="1" stop-color="#2c3036"/></linearGradient><filter id="b" x="9.466" y="9.466" width="25" height="25" filterUnits="userSpaceOnUse"><feOffset dx="2" dy="2" input="SourceAlpha"/><feGaussianBlur stdDeviation="3" result="c"/><feFlood flood-color="#24415d" flood-opacity="0.302"/><feComposite operator="in" in2="c"/><feComposite in="SourceGraphic"/></filter><linearGradient id="d" x1="0.962" y1="0.962" x2="-0.282" y2="-0.104" gradientUnits="objectBoundingBox"><stop offset="0" stop-color="#f2f3f6"/><stop offset="1" stop-color="#e5e6ec"/></linearGradient><filter id="e" x="0" y="0" width="37.668" height="37.668" filterUnits="userSpaceOnUse"><feOffset dx="-1" dy="-1" input="SourceAlpha"/><feGaussianBlur stdDeviation="3" result="f"/><feFlood flood-color="#fff"/><feComposite operator="in" in2="f"/><feComposite in="SourceGraphic"/></filter></defs><g transform="translate(-599.368 -467.534)"><path d="M14.538,0A14.761,14.761,0,0,1,29.075,14.975c0,8.27-12.539,29.708-14.538,29.708S0,23.245,0,14.975A14.761,14.761,0,0,1,14.538,0Z" transform="translate(604.664 473)" fill="url(#a)"/><g transform="translate(613.343 481.684)"><g transform="matrix(1, 0, 0, 1, -13.98, -14.15)" filter="url(#b)"><rect width="7" height="7" rx="3.5" transform="translate(16.47 16.47)" fill="#edeef2"/></g><g transform="matrix(1, 0, 0, 1, -13.98, -14.15)" filter="url(#e)"><rect width="14.333" height="14.333" rx="7.167" transform="translate(29.67 22.29) rotate(149)" fill="url(#d)"/></g></g></g></svg>