<svg xmlns="http://www.w3.org/2000/svg" version="1.1" xmlns:xlink="http://www.w3.org/1999/xlink" xmlns:svgjs="http://svgjs.com/svgjs" width="1366" height="786" preserveAspectRatio="none" viewBox="0 0 1366 786"><g mask="url(&quot;#SvgjsMask1002&quot;)" fill="none"><rect width="1366" height="786" x="0" y="0" fill="rgba(233, 234, 239, 1)"></rect><path d="M-264.89 320.01C-91.51 328.85 9.64 618.22 354.28 634.41 698.91 650.6 802.16 921.8 973.44 929.19" stroke="rgba(255, 109, 109, 0.39)" stroke-width="2"></path><path d="M-44.4 223.84C62.73 224.5 164.16 322.09 372.72 322.09 581.28 322.09 534.36 193.43 789.84 223.84 1045.32 254.25 1028.53 826.03 1206.96 924.71" stroke="rgba(255, 109, 109, 0.39)" stroke-width="2"></path><path d="M-208.53 190.37C-98.94 191 5.09 288.62 218.7 288.62 432.32 288.62 397.9 171.48 645.94 190.37 893.97 209.26 902.58 724.85 1073.17 798.47" stroke="rgba(255, 109, 109, 0.39)" stroke-width="2"></path><path d="M-169.09 594.43C-43.16 585.69 38.85 339.49 268.73 342.91 498.6 346.33 543.05 820.88 706.54 875.45" stroke="rgba(255, 109, 109, 0.39)" stroke-width="2"></path><path d="M-2.45 517.18C95.06 517.98 186.28 615.43 375.02 615.43 563.75 615.43 552.8 513.52 752.49 517.18 952.18 520.84 1002.49 849.62 1129.96 876.8" stroke="rgba(255, 109, 109, 0.39)" stroke-width="2"></path></g><defs><mask id="SvgjsMask1002"><rect width="1366" height="786" fill="#ffffff"></rect></mask></defs></svg>