<svg xmlns="http://www.w3.org/2000/svg" xmlns:xlink="http://www.w3.org/1999/xlink" width="1366" height="768" viewBox="0 0 1366 768"><defs><clipPath id="b"><rect width="1366" height="768"/></clipPath></defs><g id="a" clip-path="url(#b)"><rect width="1366" height="768" fill="#e9eaef"/><g transform="translate(0.378 102.379)"><path d="M1536,560H0v-7.37c-2.955-40.875,11.4-66.771,43.3-77.765A113.788,113.788,0,0,1,72,469.41q42.19-77.81,120-35.62,30.37-41.63,72-11.26,82.32-37.68,120,44.63,61.99-10.01,72,51.98,30.45-41.55,72-11.1,93.12-26.89,120,66.23,46.44-25.56,72,20.89,25.63-94.37,120-68.73,46.03-25.97,72,20.06,31.23-88.77,120-57.54,48.49-23.51,72,24.98,102.26-17.74,120,84.53,42.57-77.43,120-34.86-2.94-74.95,72-77.89,34.72-85.27,120-50.55Z" transform="translate(0 39.661)" fill="#fff"/></g><rect width="1366" height="73" transform="translate(0 701)" fill="#fff"/></g></svg>