<svg xmlns="http://www.w3.org/2000/svg" width="2414.392" height="3708.357" viewBox="0 0 2414.392 3708.357"><rect width="1366" height="768" transform="translate(789.944)" fill="#e9eaef"/><path d="M0,243C91.2,209,273.6,82.6,456,73S730,203.2,912,195,1275.2,64.6,1366,32V768H0Z" transform="translate(789.944)" fill="#db633a"/><path d="M-155.277,959.159c198.112-58.431,521.7-440.253,917.068-460.131s1040.763,269.778,1238.875,327.73v263.416H19.542Z" transform="translate(155.277 122.826)" fill="#e9eaef"/><g transform="translate(789.944 2812)"><rect width="1366" height="786" fill="#e9eaef"/><path d="M400.1,895.38c128.2-27.65,178.18-359.19,378.75-362.97s189.38,98.25,378.76,98.25,280.93-97.45,378.75-98.25" fill="none" stroke="rgba(219,99,58,0.58)" stroke-width="2"/><path d="M331.26,838.67c213.83-52.99,290.08-626.86,613.75-632.32s450.79,216.79,613.76,220.08" fill="none" stroke="rgba(219,99,58,0.58)" stroke-width="2"/><path d="M718.36,810.79c183.52-83.53,209.99-661.16,452.99-667.32s315.95,299.5,452.99,314.4" fill="none" stroke="rgba(219,99,58,0.58)" stroke-width="2"/><path d="M82.78,800.35c166.79-64.49,185.16-556.21,430.15-571.49S728,327.11,943.07,327.11s319.85-97.63,430.15-98.25" fill="none" stroke="rgba(219,99,58,0.58)" stroke-width="2"/><path d="M693.73,825.06c103.33-2.64,151.95-125.03,385.1-150.49s252.53-354.09,385.1-385.14" fill="none" stroke="rgba(219,99,58,0.58)" stroke-width="2"/></g><text transform="translate(1454.944 451)" fill="#063e7d" font-size="27" font-family="YuMincho-Demibold, Yu Mincho" font-weight="300" letter-spacing="0.05em"><tspan x="0" y="0">Fukuoka</tspan></text><text transform="translate(1406.944 511)" fill="#063e7d" font-size="22" font-family="YuMincho-Demibold, Yu Mincho" font-weight="300" letter-spacing="0.05em"><tspan x="0" y="0">安達さくらと申します。現役国立大理系学部の2年生です。</tspan><tspan x="0" y="28">大学に入学してから、普段は大学の授業をこなしつつ、</tspan><tspan x="0" y="56">プログラミングも学んできました。</tspan><tspan x="0" y="84">好きなことは、食べ歩き(無類のプリン好き)、映画鑑賞、</tspan><tspan x="0" y="112">もちろんプログラミングです！</tspan><tspan x="0" y="140">丁寧かつ柔軟な対応を心がけております。</tspan><tspan x="0" y="168">お気軽にご連絡ください。</tspan></text></svg>